<svg width="60" height="10" viewBox="0 0 60 10" fill="none" xmlns="http://www.w3.org/2000/svg">
<path d="M5.99801 7.47C5.65134 7.47 5.35467 7.35 5.10801 7.11C4.86801 6.86333 4.74801 6.56 4.74801 6.2C4.74801 5.84 4.86801 5.54 5.10801 5.3C5.35467 5.06 5.65134 4.94 5.99801 4.94C6.34467 4.94 6.63801 5.06 6.87801 5.3C7.12467 5.54 7.24801 5.84 7.24801 6.2C7.24801 6.56 7.12467 6.86333 6.87801 7.11C6.63801 7.35 6.34467 7.47 5.99801 7.47Z" fill="white"/>
<path d="M17.998 7.47C17.6513 7.47 17.3547 7.35 17.108 7.11C16.868 6.86333 16.748 6.56 16.748 6.2C16.748 5.84 16.868 5.54 17.108 5.3C17.3547 5.06 17.6513 4.94 17.998 4.94C18.3447 4.94 18.638 5.06 18.878 5.3C19.1247 5.54 19.248 5.84 19.248 6.2C19.248 6.56 19.1247 6.86333 18.878 7.11C18.638 7.35 18.3447 7.47 17.998 7.47Z" fill="white"/>
<path d="M29.998 7.47C29.6513 7.47 29.3547 7.35 29.108 7.11C28.868 6.86333 28.748 6.56 28.748 6.2C28.748 5.84 28.868 5.54 29.108 5.3C29.3547 5.06 29.6513 4.94 29.998 4.94C30.3447 4.94 30.638 5.06 30.878 5.3C31.1247 5.54 31.248 5.84 31.248 6.2C31.248 6.56 31.1247 6.86333 30.878 7.11C30.638 7.35 30.3447 7.47 29.998 7.47Z" fill="white"/>
<path d="M41.998 7.47C41.6513 7.47 41.3547 7.35 41.108 7.11C40.868 6.86333 40.748 6.56 40.748 6.2C40.748 5.84 40.868 5.54 41.108 5.3C41.3547 5.06 41.6513 4.94 41.998 4.94C42.3447 4.94 42.638 5.06 42.878 5.3C43.1247 5.54 43.248 5.84 43.248 6.2C43.248 6.56 43.1247 6.86333 42.878 7.11C42.638 7.35 42.3447 7.47 41.998 7.47Z" fill="white"/>
<path d="M53.998 7.47C53.6513 7.47 53.3547 7.35 53.108 7.11C52.868 6.86333 52.748 6.56 52.748 6.2C52.748 5.84 52.868 5.54 53.108 5.3C53.3547 5.06 53.6513 4.94 53.998 4.94C54.3447 4.94 54.638 5.06 54.878 5.3C55.1247 5.54 55.248 5.84 55.248 6.2C55.248 6.56 55.1247 6.86333 54.878 7.11C54.638 7.35 54.3447 7.47 53.998 7.47Z" fill="white"/>
</svg>
