<svg width="61" height="36" viewBox="0 0 61 36" fill="none" xmlns="http://www.w3.org/2000/svg">
<g clip-path="url(#clip0_83_2)">
<path fill-rule="evenodd" clip-rule="evenodd" d="M26.5856 1.30206C26.5856 0.582953 27.1783 0 27.9095 0H27.9819C28.7131 0 29.3058 0.582954 29.3058 1.30206V20.955C29.3058 21.6741 28.7131 22.2571 27.9819 22.2571H27.9095C27.1783 22.2571 26.5856 21.6741 26.5856 20.955V12.6306C26.5856 11.9896 26.0572 11.47 25.4055 11.47C24.7537 11.47 24.2254 11.9896 24.2254 12.6306V20.955C24.2254 21.6741 23.6326 22.2571 22.9015 22.2571H22.8291C22.0979 22.2571 21.5051 21.6741 21.5051 20.955V1.30206C21.5051 0.582953 22.0979 0 22.8291 0H22.9015C23.6326 0 24.2254 0.582954 24.2254 1.30206V8.17217C24.2254 8.81313 24.7537 9.33275 25.4055 9.33275C26.0572 9.33275 26.5856 8.81313 26.5856 8.17217V1.30206ZM33.3008 1.30206C33.3008 0.582953 33.8935 0 34.6247 0H34.6971C35.4283 0 36.021 0.582954 36.021 1.30206V20.955C36.021 21.6741 35.4283 22.2571 34.6971 22.2571H34.6247C33.8935 22.2571 33.3008 21.6741 33.3008 20.955V1.30206ZM41.3531 0C40.6219 0 40.0291 0.582953 40.0291 1.30206V20.955C40.0291 21.6741 40.6219 22.2571 41.3531 22.2571H45.9209C46.5281 22.2571 47.0203 21.773 47.0203 21.1759C47.0203 20.5787 46.5281 20.0945 45.9209 20.0945H44.0732C43.3421 20.0945 42.7494 19.5116 42.7494 18.7925V1.30206C42.7494 0.582954 42.1566 0 41.4254 0H41.3531ZM49.3858 1.30206C49.3858 0.582953 49.9785 0 50.7096 0H50.7821C51.5133 0 52.106 0.582954 52.106 1.30206V18.7925C52.106 19.5116 52.6987 20.0945 53.4299 20.0945H55.2775C55.8847 20.0945 56.3769 20.5787 56.3769 21.1759C56.3769 21.773 55.8847 22.2571 55.2775 22.2571H50.7096C49.9785 22.2571 49.3858 21.6741 49.3858 20.955V1.30206ZM59.6037 0C58.8725 0 58.2797 0.582953 58.2797 1.30206V20.955C58.2797 21.6741 58.8725 22.2571 59.6037 22.2571H59.6761C60.4072 22.2571 61 21.6741 61 20.955V1.30206C61 0.582954 60.4072 0 59.6761 0H59.6037ZM2.9149 30.2322V30.4414C2.9149 31.1506 2.86664 31.6357 2.7701 31.8967C2.67658 32.1549 2.49106 32.2839 2.21352 32.2839H1.49856V28.6301H2.2452C2.51368 28.6301 2.69167 28.7533 2.77915 28.9995C2.86966 29.2457 2.9149 29.6567 2.9149 30.2322ZM2.20899 28.0783H0.824326V35.911H1.49856V32.8447H2.16827C2.61474 32.8447 2.94809 32.7201 3.16831 32.4709C3.27691 32.3492 3.37344 32.1489 3.45791 31.87C3.5454 31.5911 3.58914 31.1119 3.58914 30.4325V30.3524C3.58914 29.9964 3.57707 29.6923 3.55294 29.4401C3.53182 29.1879 3.46696 28.9283 3.35836 28.6612C3.29501 28.5129 3.16831 28.3794 2.97825 28.2607C2.79122 28.1391 2.5348 28.0783 2.20899 28.0783ZM10.4358 28.0783H9.74797L8.46738 35.911H9.10541L9.3452 34.3222H10.938L11.2005 35.911H11.8521L10.4358 28.0783ZM10.1145 29.3422L10.8475 33.7748H9.43118L10.1054 29.3422H10.1145ZM19.3141 29.1018C19.3533 29.2858 19.3729 29.5751 19.3729 29.9697V30.0275C19.3729 30.5646 19.3518 30.9236 19.3096 31.1046C19.2673 31.2825 19.204 31.4102 19.1195 31.4873C19.0381 31.5644 18.8827 31.603 18.6535 31.603H17.9475V28.6301H18.7032C18.8963 28.6301 19.0365 28.6628 19.1241 28.728C19.2145 28.7933 19.2779 28.9179 19.3141 29.1018ZM18.6308 28.0783H17.2778V35.911H17.9521V32.048L18.667 32.0925C19.0018 32.0925 19.2025 32.1667 19.2688 32.3151C19.3382 32.4634 19.3729 32.8106 19.3729 33.3565V34.2198C19.3729 34.7627 19.3775 35.1589 19.3865 35.4081C19.3955 35.6543 19.4242 35.822 19.4724 35.911H20.1422C20.0969 35.7893 20.0683 35.687 20.0562 35.6039C20.0472 35.5178 20.0426 35.1974 20.0426 34.6426C20.0426 33.3045 19.9537 32.4649 19.7756 32.1237C19.7183 32.0139 19.6535 31.9367 19.5811 31.8922C19.5087 31.8448 19.4197 31.8121 19.3141 31.7944C19.5826 31.7231 19.7711 31.5407 19.8797 31.2469C19.9914 30.9503 20.0472 30.569 20.0472 30.1032C20.0472 29.6374 20.0275 29.2828 19.9883 29.0396C19.9521 28.7933 19.8647 28.5856 19.7259 28.4165C19.5418 28.191 19.1768 28.0783 18.6308 28.0783ZM27.5227 28.0783H25.2738V28.5945H26.1064V35.911H26.7761V28.5945H27.5227V28.0783ZM35.8265 28.0783H35.2381V31.4383L35.3061 34.1353L33.3512 28.0783H32.8806V35.911H33.5141V32.1281L33.4689 30.0098L35.3015 35.911H35.8265V28.0783ZM43.8315 28.0783H41.7273V35.911H43.8179V35.3859H42.4015V32.1949H43.7455V31.6564H42.4015V28.5945H43.8315V28.0783ZM51.4246 29.1018C51.4639 29.2858 51.4835 29.5751 51.4835 29.9697V30.0275C51.4835 30.5646 51.4624 30.9236 51.4201 31.1046C51.3779 31.2825 51.3146 31.4102 51.2301 31.4873C51.1487 31.5644 50.9933 31.603 50.764 31.603H50.0581V28.6301H50.8138C51.0069 28.6301 51.1471 28.6628 51.2346 28.728C51.3252 28.7933 51.3885 28.9179 51.4246 29.1018ZM50.7414 28.0783H49.3884V35.911H50.0626V32.048L50.7776 32.0925C51.1125 32.0925 51.313 32.1667 51.3794 32.3151C51.4488 32.4634 51.4835 32.8106 51.4835 33.3565V34.2198C51.4835 34.7627 51.488 35.1589 51.4971 35.4081C51.5061 35.6543 51.5348 35.822 51.5831 35.911H52.2528C52.2075 35.7893 52.1788 35.687 52.1668 35.6039C52.1577 35.5178 52.1532 35.1974 52.1532 34.6426C52.1532 33.3045 52.0642 32.4649 51.8863 32.1237C51.8289 32.0139 51.764 31.9367 51.6916 31.8922C51.6193 31.8448 51.5302 31.8121 51.4246 31.7944C51.6931 31.7231 51.8817 31.5407 51.9903 31.2469C52.1019 30.9503 52.1577 30.569 52.1577 30.1032C52.1577 29.6374 52.1381 29.2828 52.0989 29.0396C52.0627 28.7933 51.9752 28.5856 51.8365 28.4165C51.6524 28.191 51.2874 28.0783 50.7414 28.0783ZM58.0269 28.3142C57.8188 28.5337 57.6921 28.8556 57.6468 29.2799C57.6257 29.4727 57.6152 29.7071 57.6152 29.983C57.6152 30.256 57.683 30.526 57.8188 30.793C57.9545 31.057 58.2245 31.3834 58.6287 31.7721L59.0903 32.2038C59.5579 32.6518 59.7917 33.1666 59.7917 33.7481C59.7917 34.03 59.7872 34.294 59.7781 34.5403C59.7721 34.7866 59.7283 34.9972 59.6469 35.1722C59.5685 35.3443 59.3829 35.4304 59.0903 35.4304C58.7977 35.4304 58.6031 35.2969 58.5066 35.0298C58.4131 34.7627 58.3663 34.2762 58.3663 33.5701V32.769H57.6785V33.5834C57.6785 34.0166 57.6981 34.3816 57.7373 34.6782C57.8489 35.5594 58.2758 36 59.0179 36C59.5006 36 59.8641 35.8665 60.1085 35.5995C60.3558 35.3324 60.4795 34.7791 60.4795 33.9395C60.4795 33.0968 60.1582 32.3507 59.5156 31.7009L59.0813 31.2692C58.7253 30.9191 58.5322 30.7144 58.5021 30.6551C58.4749 30.5957 58.4326 30.5141 58.3754 30.4103C58.3181 30.3035 58.2894 30.1032 58.2894 29.8095C58.2894 28.9699 58.5186 28.55 58.9772 28.55C59.2035 28.55 59.3603 28.6183 59.4478 28.7548C59.496 28.8289 59.5428 28.9387 59.5881 29.0841C59.6334 29.2295 59.6559 29.6463 59.6559 30.3347V30.8242H60.3483V30.3836C60.3452 29.4787 60.2865 28.906 60.1718 28.6657C60.1175 28.547 60.0421 28.4284 59.9455 28.3097C59.7706 28.0901 59.4598 27.9803 59.0134 27.9803C58.5669 27.9803 58.2381 28.0916 58.0269 28.3142Z" fill="white"/>
<path d="M15.5482 1.32951C15.077 0.748868 14.4153 0.352351 13.6797 0.209672L13.6825 0.208269C12.2004 -0.0772691 10.6763 -0.0691271 9.19732 0.232237C7.71838 0.533599 6.31347 1.12228 5.06283 1.96466C3.81219 2.80704 2.74033 3.88663 1.90843 5.14177C1.07653 6.39691 0.50089 7.80304 0.214384 9.2799C0.0727177 10.0045 0.000928796 10.741 0 11.4793C0.000696404 13.7583 0.688634 15.9847 1.97459 17.8694C3.66133 20.3563 6.26047 22.0839 9.21265 22.6805C12.1649 23.2771 15.2342 22.6951 17.7601 21.0596C17.9597 20.9262 18.0988 20.72 18.1473 20.4854C18.1959 20.2508 18.1501 20.0067 18.0196 19.8054C17.8893 19.6042 17.6848 19.462 17.4503 19.4096C17.2157 19.3571 16.9699 19.3985 16.7657 19.5249C15.5917 20.2759 14.2222 20.6669 12.8273 20.6495C11.4323 20.6322 10.0732 20.2071 8.91836 19.4272C7.76358 18.6472 6.86398 17.5466 6.33115 16.2619C5.79831 14.9772 5.65568 13.5649 5.92095 12.2002C5.97172 11.9397 6.0367 11.6822 6.11559 11.4287C6.5533 10.0291 7.41532 8.79897 8.58311 7.90738C9.75093 7.01579 11.1673 6.50648 12.6374 6.44947H12.6769C12.9082 6.44104 13.1381 6.44525 13.3595 6.45931C13.4324 6.46511 13.5058 6.46228 13.5781 6.45087C14.0026 6.38422 14.409 6.23223 14.7728 6.00416C15.1365 5.7761 15.4498 5.47671 15.6937 5.12422C16.3458 5.34724 16.9573 5.67374 17.5048 6.0911C17.6994 6.23163 17.9416 6.29038 18.1793 6.25469C18.417 6.219 18.631 6.09173 18.7755 5.90029C18.9199 5.70884 18.9831 5.46853 18.9515 5.23112C18.9198 4.9937 18.7958 4.77817 18.6063 4.63093C17.8963 4.0908 17.1026 3.66973 16.2565 3.38438C16.2703 2.63774 16.0195 1.91015 15.5482 1.32951Z" fill="#DD0917"/>
</g>
<defs>
<clipPath id="clip0_83_2">
<rect width="61" height="36" fill="white"/>
</clipPath>
</defs>
</svg>
